<svg width="192" height="64" viewBox="0 0 192 64" fill="none" xmlns="http://www.w3.org/2000/svg">
<g filter="url(#filter0_ii_533_101536)">
<g clip-path="url(#clip0_533_101536)">
<g clip-path="url(#clip1_533_101536)">
<rect width="32" height="32" fill="#F49B00"/>
<g filter="url(#filter1_ddii_533_101536)">
<circle cx="16" cy="16" r="8" fill="#F49B00"/>
</g>
</g>
<g clip-path="url(#clip2_533_101536)">
<rect x="32" width="32" height="32" fill="#F49B00"/>
<g filter="url(#filter2_ddii_533_101536)">
<circle cx="48" cy="16" r="8" fill="#F49B00"/>
</g>
</g>
<g clip-path="url(#clip3_533_101536)">
<rect x="64" width="32" height="32" fill="#F49B00"/>
<g filter="url(#filter3_ddii_533_101536)">
<circle cx="80" cy="16" r="8" fill="#F49B00"/>
</g>
</g>
<g clip-path="url(#clip4_533_101536)">
<rect x="96" width="32" height="32" fill="#F49B00"/>
<g filter="url(#filter4_ddii_533_101536)">
<circle cx="112" cy="16" r="8" fill="#F49B00"/>
</g>
</g>
<g clip-path="url(#clip5_533_101536)">
<rect x="128" width="32" height="32" fill="#F49B00"/>
<g filter="url(#filter5_ddii_533_101536)">
<circle cx="144" cy="16" r="8" fill="#F49B00"/>
</g>
</g>
<g clip-path="url(#clip6_533_101536)">
<rect x="160" width="32" height="32" fill="#F49B00"/>
<g filter="url(#filter6_ddii_533_101536)">
<circle cx="176" cy="16" r="8" fill="#F49B00"/>
</g>
</g>
<g clip-path="url(#clip7_533_101536)">
<rect y="32" width="32" height="32" fill="#F49B00"/>
<g filter="url(#filter7_ddii_533_101536)">
<circle cx="16" cy="48" r="8" fill="#F49B00"/>
</g>
</g>
<g clip-path="url(#clip8_533_101536)">
<rect x="32" y="32" width="32" height="32" fill="#F49B00"/>
<g filter="url(#filter8_ddii_533_101536)">
<circle cx="48" cy="48" r="8" fill="#F49B00"/>
</g>
</g>
<g clip-path="url(#clip9_533_101536)">
<rect x="64" y="32" width="32" height="32" fill="#F49B00"/>
<g filter="url(#filter9_ddii_533_101536)">
<circle cx="80" cy="48" r="8" fill="#F49B00"/>
</g>
</g>
<g clip-path="url(#clip10_533_101536)">
<rect x="96" y="32" width="32" height="32" fill="#F49B00"/>
<g filter="url(#filter10_ddii_533_101536)">
<circle cx="112" cy="48" r="8" fill="#F49B00"/>
</g>
</g>
<g clip-path="url(#clip11_533_101536)">
<rect x="128" y="32" width="32" height="32" fill="#F49B00"/>
<g filter="url(#filter11_ddii_533_101536)">
<circle cx="144" cy="48" r="8" fill="#F49B00"/>
</g>
</g>
<g clip-path="url(#clip12_533_101536)">
<rect x="160" y="32" width="32" height="32" fill="#F49B00"/>
<g filter="url(#filter12_ddii_533_101536)">
<circle cx="176" cy="48" r="8" fill="#F49B00"/>
</g>
</g>
</g>
</g>
<path d="M37.0441 30.745L37.0425 28.351L41.3889 27.4661L43.4889 27.4647L43.4985 42.0387L40.6216 42.0406L40.6136 30.0496L37.0441 30.745ZM57.2029 31.7606C57.2024 30.9766 56.9711 30.4238 56.5089 30.1021C56.0606 29.7664 55.4165 29.5988 54.5765 29.5994C53.5545 29.6 52.4696 29.7688 51.3219 30.1055L51.3203 27.7325C52.3701 27.4098 53.623 27.248 55.079 27.247C56.689 27.246 57.9282 27.5881 58.7966 28.2736C59.6791 28.959 60.1208 29.9947 60.1217 31.3807C60.1223 32.2347 59.9758 32.9978 59.6822 33.67C59.4027 34.3422 58.8921 35.0705 58.1507 35.855C57.4092 36.6395 56.3108 37.6132 54.8556 38.7762L53.9321 39.5118L53.9322 39.6798L60.5052 39.6754L60.5067 42.0274L50.4267 42.0341L50.425 39.4301C52.2301 37.9869 53.6083 36.817 54.5597 35.9204C55.5251 35.0097 56.2036 34.2393 56.5952 33.609C57.0008 32.9788 57.2033 32.3626 57.2029 31.7606ZM71.4619 34.4392L71.4634 36.7072L65.0584 36.7114L65.0569 34.4434L71.4619 34.4392ZM76.9285 30.7186L76.9269 28.3246L81.2733 27.4397L83.3733 27.4383L83.383 42.0123L80.506 42.0142L80.498 30.0232L76.9285 30.7186ZM90.6471 41.9445L90.6455 39.5085C91.7937 39.7457 92.8507 39.8641 93.8167 39.8634C94.8387 39.8627 95.6366 39.7082 96.2104 39.3998C96.7842 39.0774 97.0708 38.5173 97.0703 37.7193C97.0698 36.9213 96.7684 36.3685 96.1662 36.0609C95.564 35.7393 94.6399 35.5789 93.3939 35.5797L92.2809 35.5804L92.2795 33.4174L93.3715 33.4167C94.4915 33.416 95.3454 33.2544 95.9331 32.932C96.5209 32.6096 96.8146 32.0844 96.8141 31.3564C96.8137 30.6984 96.5824 30.2296 96.1202 29.9499C95.658 29.6702 94.9789 29.5306 94.0829 29.5312C93.6349 29.5315 93.1449 29.5739 92.613 29.6582C92.095 29.7285 91.6331 29.8269 91.2272 29.9531L91.2256 27.6431C91.5896 27.5309 92.0655 27.4326 92.6535 27.3482C93.2554 27.2638 93.8434 27.2214 94.4174 27.221C96.1114 27.2199 97.3996 27.527 98.282 28.1425C99.1784 28.7579 99.6271 29.7656 99.628 31.1656C99.629 32.7756 98.8317 33.8401 97.2361 34.3591L97.2362 34.4851C98.1463 34.6665 98.8326 35.0581 99.295 35.6598C99.7713 36.2475 100.01 37.0033 100.01 37.9273C100.012 40.7833 97.9973 42.2126 93.9653 42.2153C92.6773 42.2162 91.5712 42.1259 90.6471 41.9445ZM130.54 39.2301C130.541 40.0141 130.506 40.6721 130.436 41.2042C130.353 41.8202 130.206 42.3033 129.996 42.6535C129.787 43.0176 129.458 43.2908 129.01 43.4731C128.562 43.6694 127.939 43.7888 127.141 43.8314C126.581 43.8597 126.168 43.874 125.902 43.8742C125.636 43.8744 125.223 43.8606 124.663 43.833C123.963 43.7915 123.417 43.6868 123.025 43.5191C122.633 43.3654 122.346 43.0995 122.163 42.7217C121.981 42.3438 121.89 41.8048 121.889 41.1048L121.886 35.4558C120.934 35.5125 120.171 35.548 119.597 35.5624C119.569 35.8984 119.555 36.1364 119.555 36.2764C119.486 37.6764 119.221 38.8596 118.759 39.8259C118.298 40.7782 117.606 41.6187 116.682 42.3473C115.773 43.0899 114.52 43.8537 112.925 44.6388L111.558 42.4557C112.902 41.8668 113.951 41.2991 114.707 40.7526C115.463 40.1921 116.029 39.5617 116.407 38.8615C116.784 38.1612 117.036 37.2791 117.161 36.215L117.203 35.6899L115.796 35.7749C115.026 35.8314 114.298 35.8739 113.612 35.9023L113.064 33.6347C113.246 33.6066 113.456 33.5364 113.694 33.4243C113.946 33.2981 114.128 33.193 114.24 33.1089C115.15 32.3523 116.29 31.1755 117.661 29.5786L112.348 29.5822L112.346 27.2722L120.158 27.267C119.878 26.3152 119.688 25.6993 119.59 25.4194L121.963 25.0608C122.173 25.6907 122.405 26.4255 122.657 27.2653L129.818 27.2606L129.82 29.5706L120.748 29.5766C120.09 30.347 119.426 31.0895 118.754 31.8039C118.097 32.5044 117.544 33.0437 117.096 33.422L125.076 33.1227C124.193 32.1573 123.493 31.4018 122.975 30.8561L124.738 29.616C125.382 30.2595 126.139 31.064 127.007 32.0295C127.876 32.9949 128.647 33.8974 129.319 34.7369L127.808 36.4179C127.388 35.8582 127.094 35.4734 126.925 35.2635L124.238 35.3703L124.241 40.5783C124.241 40.9703 124.325 41.2292 124.493 41.3551C124.676 41.481 125.019 41.5648 125.523 41.6064C125.677 41.6203 125.908 41.6272 126.216 41.627C126.51 41.6268 126.734 41.6196 126.888 41.6055C127.252 41.5633 127.511 41.5141 127.665 41.458C127.833 41.4019 127.951 41.3178 128.021 41.2058C128.091 41.0797 128.154 40.8837 128.21 40.6177C128.294 40.0436 128.335 39.3716 128.335 38.6016L130.54 39.2301ZM153.564 39.1939C153.536 39.7959 153.453 40.454 153.313 41.1681C153.202 41.8541 153.027 42.3792 152.789 42.7434C152.552 43.1076 152.209 43.3598 151.761 43.5001C151.327 43.6544 150.711 43.7528 149.913 43.7953C149.409 43.8236 148.667 43.8381 147.687 43.8388C146.707 43.8394 145.972 43.8259 145.482 43.7982C144.628 43.7568 143.977 43.6452 143.529 43.4635C143.081 43.2958 142.758 42.995 142.562 42.5612C142.38 42.1273 142.288 41.4974 142.288 40.6714L142.287 38.9704L136.029 38.9745L136.021 27.7185L142.279 27.7144L142.278 25.2154L144.546 25.2979L144.547 27.7129L151.015 27.7086L151.023 38.9646L144.555 38.9689L144.556 40.2499C144.556 40.7539 144.654 41.0968 144.85 41.2787C145.046 41.4465 145.375 41.5443 145.837 41.572C146.594 41.5995 147.154 41.6131 147.518 41.6129C147.896 41.6126 148.449 41.5983 149.176 41.5698C149.694 41.5415 150.065 41.4992 150.289 41.4431C150.527 41.3729 150.709 41.2468 150.835 41.0647C150.961 40.8686 151.052 40.5536 151.108 40.1195C151.219 39.3074 151.275 38.7404 151.274 38.4184L153.564 39.1939ZM142.282 32.3134L142.281 29.8144L138.291 29.817L138.292 32.316L142.282 32.3134ZM148.708 32.3091L148.707 29.8101L144.549 29.8129L144.55 32.3119L148.708 32.3091ZM138.294 34.374L138.295 36.873L142.285 36.8704L142.284 34.3714L138.294 34.374ZM144.552 34.3699L144.553 36.8689L148.711 36.8661L148.71 34.3671L144.552 34.3699Z" fill="#7A4310"/>
<defs>
<filter id="filter0_ii_533_101536" x="-1" y="-1" width="194" height="66" filterUnits="userSpaceOnUse" color-interpolation-filters="sRGB">
<feFlood flood-opacity="0" result="BackgroundImageFix"/>
<feBlend mode="normal" in="SourceGraphic" in2="BackgroundImageFix" result="shape"/>
<feColorMatrix in="SourceAlpha" type="matrix" values="0 0 0 0 0 0 0 0 0 0 0 0 0 0 0 0 0 0 127 0" result="hardAlpha"/>
<feOffset dx="1" dy="1"/>
<feGaussianBlur stdDeviation="1"/>
<feComposite in2="hardAlpha" operator="arithmetic" k2="-1" k3="1"/>
<feColorMatrix type="matrix" values="0 0 0 0 1 0 0 0 0 1 0 0 0 0 1 0 0 0 0.25 0"/>
<feBlend mode="normal" in2="shape" result="effect1_innerShadow_533_101536"/>
<feColorMatrix in="SourceAlpha" type="matrix" values="0 0 0 0 0 0 0 0 0 0 0 0 0 0 0 0 0 0 127 0" result="hardAlpha"/>
<feOffset dx="-1" dy="-1"/>
<feGaussianBlur stdDeviation="1"/>
<feComposite in2="hardAlpha" operator="arithmetic" k2="-1" k3="1"/>
<feColorMatrix type="matrix" values="0 0 0 0 0 0 0 0 0 0 0 0 0 0 0 0 0 0 0.25 0"/>
<feBlend mode="normal" in2="effect1_innerShadow_533_101536" result="effect2_innerShadow_533_101536"/>
</filter>
<filter id="filter1_ddii_533_101536" x="3" y="3" width="26" height="26" filterUnits="userSpaceOnUse" color-interpolation-filters="sRGB">
<feFlood flood-opacity="0" result="BackgroundImageFix"/>
<feColorMatrix in="SourceAlpha" type="matrix" values="0 0 0 0 0 0 0 0 0 0 0 0 0 0 0 0 0 0 127 0" result="hardAlpha"/>
<feOffset dx="1" dy="1"/>
<feGaussianBlur stdDeviation="2"/>
<feComposite in2="hardAlpha" operator="out"/>
<feColorMatrix type="matrix" values="0 0 0 0 0 0 0 0 0 0 0 0 0 0 0 0 0 0 0.25 0"/>
<feBlend mode="normal" in2="BackgroundImageFix" result="effect1_dropShadow_533_101536"/>
<feColorMatrix in="SourceAlpha" type="matrix" values="0 0 0 0 0 0 0 0 0 0 0 0 0 0 0 0 0 0 127 0" result="hardAlpha"/>
<feOffset dx="-1" dy="-1"/>
<feGaussianBlur stdDeviation="2"/>
<feComposite in2="hardAlpha" operator="out"/>
<feColorMatrix type="matrix" values="0 0 0 0 1 0 0 0 0 1 0 0 0 0 1 0 0 0 0.25 0"/>
<feBlend mode="normal" in2="effect1_dropShadow_533_101536" result="effect2_dropShadow_533_101536"/>
<feBlend mode="normal" in="SourceGraphic" in2="effect2_dropShadow_533_101536" result="shape"/>
<feColorMatrix in="SourceAlpha" type="matrix" values="0 0 0 0 0 0 0 0 0 0 0 0 0 0 0 0 0 0 127 0" result="hardAlpha"/>
<feOffset dx="1" dy="1"/>
<feGaussianBlur stdDeviation="1"/>
<feComposite in2="hardAlpha" operator="arithmetic" k2="-1" k3="1"/>
<feColorMatrix type="matrix" values="0 0 0 0 1 0 0 0 0 1 0 0 0 0 1 0 0 0 0.25 0"/>
<feBlend mode="normal" in2="shape" result="effect3_innerShadow_533_101536"/>
<feColorMatrix in="SourceAlpha" type="matrix" values="0 0 0 0 0 0 0 0 0 0 0 0 0 0 0 0 0 0 127 0" result="hardAlpha"/>
<feOffset dx="-1" dy="-1"/>
<feGaussianBlur stdDeviation="1"/>
<feComposite in2="hardAlpha" operator="arithmetic" k2="-1" k3="1"/>
<feColorMatrix type="matrix" values="0 0 0 0 0 0 0 0 0 0 0 0 0 0 0 0 0 0 0.25 0"/>
<feBlend mode="normal" in2="effect3_innerShadow_533_101536" result="effect4_innerShadow_533_101536"/>
</filter>
<filter id="filter2_ddii_533_101536" x="35" y="3" width="26" height="26" filterUnits="userSpaceOnUse" color-interpolation-filters="sRGB">
<feFlood flood-opacity="0" result="BackgroundImageFix"/>
<feColorMatrix in="SourceAlpha" type="matrix" values="0 0 0 0 0 0 0 0 0 0 0 0 0 0 0 0 0 0 127 0" result="hardAlpha"/>
<feOffset dx="1" dy="1"/>
<feGaussianBlur stdDeviation="2"/>
<feComposite in2="hardAlpha" operator="out"/>
<feColorMatrix type="matrix" values="0 0 0 0 0 0 0 0 0 0 0 0 0 0 0 0 0 0 0.25 0"/>
<feBlend mode="normal" in2="BackgroundImageFix" result="effect1_dropShadow_533_101536"/>
<feColorMatrix in="SourceAlpha" type="matrix" values="0 0 0 0 0 0 0 0 0 0 0 0 0 0 0 0 0 0 127 0" result="hardAlpha"/>
<feOffset dx="-1" dy="-1"/>
<feGaussianBlur stdDeviation="2"/>
<feComposite in2="hardAlpha" operator="out"/>
<feColorMatrix type="matrix" values="0 0 0 0 1 0 0 0 0 1 0 0 0 0 1 0 0 0 0.25 0"/>
<feBlend mode="normal" in2="effect1_dropShadow_533_101536" result="effect2_dropShadow_533_101536"/>
<feBlend mode="normal" in="SourceGraphic" in2="effect2_dropShadow_533_101536" result="shape"/>
<feColorMatrix in="SourceAlpha" type="matrix" values="0 0 0 0 0 0 0 0 0 0 0 0 0 0 0 0 0 0 127 0" result="hardAlpha"/>
<feOffset dx="1" dy="1"/>
<feGaussianBlur stdDeviation="1"/>
<feComposite in2="hardAlpha" operator="arithmetic" k2="-1" k3="1"/>
<feColorMatrix type="matrix" values="0 0 0 0 1 0 0 0 0 1 0 0 0 0 1 0 0 0 0.25 0"/>
<feBlend mode="normal" in2="shape" result="effect3_innerShadow_533_101536"/>
<feColorMatrix in="SourceAlpha" type="matrix" values="0 0 0 0 0 0 0 0 0 0 0 0 0 0 0 0 0 0 127 0" result="hardAlpha"/>
<feOffset dx="-1" dy="-1"/>
<feGaussianBlur stdDeviation="1"/>
<feComposite in2="hardAlpha" operator="arithmetic" k2="-1" k3="1"/>
<feColorMatrix type="matrix" values="0 0 0 0 0 0 0 0 0 0 0 0 0 0 0 0 0 0 0.25 0"/>
<feBlend mode="normal" in2="effect3_innerShadow_533_101536" result="effect4_innerShadow_533_101536"/>
</filter>
<filter id="filter3_ddii_533_101536" x="67" y="3" width="26" height="26" filterUnits="userSpaceOnUse" color-interpolation-filters="sRGB">
<feFlood flood-opacity="0" result="BackgroundImageFix"/>
<feColorMatrix in="SourceAlpha" type="matrix" values="0 0 0 0 0 0 0 0 0 0 0 0 0 0 0 0 0 0 127 0" result="hardAlpha"/>
<feOffset dx="1" dy="1"/>
<feGaussianBlur stdDeviation="2"/>
<feComposite in2="hardAlpha" operator="out"/>
<feColorMatrix type="matrix" values="0 0 0 0 0 0 0 0 0 0 0 0 0 0 0 0 0 0 0.25 0"/>
<feBlend mode="normal" in2="BackgroundImageFix" result="effect1_dropShadow_533_101536"/>
<feColorMatrix in="SourceAlpha" type="matrix" values="0 0 0 0 0 0 0 0 0 0 0 0 0 0 0 0 0 0 127 0" result="hardAlpha"/>
<feOffset dx="-1" dy="-1"/>
<feGaussianBlur stdDeviation="2"/>
<feComposite in2="hardAlpha" operator="out"/>
<feColorMatrix type="matrix" values="0 0 0 0 1 0 0 0 0 1 0 0 0 0 1 0 0 0 0.25 0"/>
<feBlend mode="normal" in2="effect1_dropShadow_533_101536" result="effect2_dropShadow_533_101536"/>
<feBlend mode="normal" in="SourceGraphic" in2="effect2_dropShadow_533_101536" result="shape"/>
<feColorMatrix in="SourceAlpha" type="matrix" values="0 0 0 0 0 0 0 0 0 0 0 0 0 0 0 0 0 0 127 0" result="hardAlpha"/>
<feOffset dx="1" dy="1"/>
<feGaussianBlur stdDeviation="1"/>
<feComposite in2="hardAlpha" operator="arithmetic" k2="-1" k3="1"/>
<feColorMatrix type="matrix" values="0 0 0 0 1 0 0 0 0 1 0 0 0 0 1 0 0 0 0.25 0"/>
<feBlend mode="normal" in2="shape" result="effect3_innerShadow_533_101536"/>
<feColorMatrix in="SourceAlpha" type="matrix" values="0 0 0 0 0 0 0 0 0 0 0 0 0 0 0 0 0 0 127 0" result="hardAlpha"/>
<feOffset dx="-1" dy="-1"/>
<feGaussianBlur stdDeviation="1"/>
<feComposite in2="hardAlpha" operator="arithmetic" k2="-1" k3="1"/>
<feColorMatrix type="matrix" values="0 0 0 0 0 0 0 0 0 0 0 0 0 0 0 0 0 0 0.25 0"/>
<feBlend mode="normal" in2="effect3_innerShadow_533_101536" result="effect4_innerShadow_533_101536"/>
</filter>
<filter id="filter4_ddii_533_101536" x="99" y="3" width="26" height="26" filterUnits="userSpaceOnUse" color-interpolation-filters="sRGB">
<feFlood flood-opacity="0" result="BackgroundImageFix"/>
<feColorMatrix in="SourceAlpha" type="matrix" values="0 0 0 0 0 0 0 0 0 0 0 0 0 0 0 0 0 0 127 0" result="hardAlpha"/>
<feOffset dx="1" dy="1"/>
<feGaussianBlur stdDeviation="2"/>
<feComposite in2="hardAlpha" operator="out"/>
<feColorMatrix type="matrix" values="0 0 0 0 0 0 0 0 0 0 0 0 0 0 0 0 0 0 0.25 0"/>
<feBlend mode="normal" in2="BackgroundImageFix" result="effect1_dropShadow_533_101536"/>
<feColorMatrix in="SourceAlpha" type="matrix" values="0 0 0 0 0 0 0 0 0 0 0 0 0 0 0 0 0 0 127 0" result="hardAlpha"/>
<feOffset dx="-1" dy="-1"/>
<feGaussianBlur stdDeviation="2"/>
<feComposite in2="hardAlpha" operator="out"/>
<feColorMatrix type="matrix" values="0 0 0 0 1 0 0 0 0 1 0 0 0 0 1 0 0 0 0.25 0"/>
<feBlend mode="normal" in2="effect1_dropShadow_533_101536" result="effect2_dropShadow_533_101536"/>
<feBlend mode="normal" in="SourceGraphic" in2="effect2_dropShadow_533_101536" result="shape"/>
<feColorMatrix in="SourceAlpha" type="matrix" values="0 0 0 0 0 0 0 0 0 0 0 0 0 0 0 0 0 0 127 0" result="hardAlpha"/>
<feOffset dx="1" dy="1"/>
<feGaussianBlur stdDeviation="1"/>
<feComposite in2="hardAlpha" operator="arithmetic" k2="-1" k3="1"/>
<feColorMatrix type="matrix" values="0 0 0 0 1 0 0 0 0 1 0 0 0 0 1 0 0 0 0.25 0"/>
<feBlend mode="normal" in2="shape" result="effect3_innerShadow_533_101536"/>
<feColorMatrix in="SourceAlpha" type="matrix" values="0 0 0 0 0 0 0 0 0 0 0 0 0 0 0 0 0 0 127 0" result="hardAlpha"/>
<feOffset dx="-1" dy="-1"/>
<feGaussianBlur stdDeviation="1"/>
<feComposite in2="hardAlpha" operator="arithmetic" k2="-1" k3="1"/>
<feColorMatrix type="matrix" values="0 0 0 0 0 0 0 0 0 0 0 0 0 0 0 0 0 0 0.25 0"/>
<feBlend mode="normal" in2="effect3_innerShadow_533_101536" result="effect4_innerShadow_533_101536"/>
</filter>
<filter id="filter5_ddii_533_101536" x="131" y="3" width="26" height="26" filterUnits="userSpaceOnUse" color-interpolation-filters="sRGB">
<feFlood flood-opacity="0" result="BackgroundImageFix"/>
<feColorMatrix in="SourceAlpha" type="matrix" values="0 0 0 0 0 0 0 0 0 0 0 0 0 0 0 0 0 0 127 0" result="hardAlpha"/>
<feOffset dx="1" dy="1"/>
<feGaussianBlur stdDeviation="2"/>
<feComposite in2="hardAlpha" operator="out"/>
<feColorMatrix type="matrix" values="0 0 0 0 0 0 0 0 0 0 0 0 0 0 0 0 0 0 0.25 0"/>
<feBlend mode="normal" in2="BackgroundImageFix" result="effect1_dropShadow_533_101536"/>
<feColorMatrix in="SourceAlpha" type="matrix" values="0 0 0 0 0 0 0 0 0 0 0 0 0 0 0 0 0 0 127 0" result="hardAlpha"/>
<feOffset dx="-1" dy="-1"/>
<feGaussianBlur stdDeviation="2"/>
<feComposite in2="hardAlpha" operator="out"/>
<feColorMatrix type="matrix" values="0 0 0 0 1 0 0 0 0 1 0 0 0 0 1 0 0 0 0.25 0"/>
<feBlend mode="normal" in2="effect1_dropShadow_533_101536" result="effect2_dropShadow_533_101536"/>
<feBlend mode="normal" in="SourceGraphic" in2="effect2_dropShadow_533_101536" result="shape"/>
<feColorMatrix in="SourceAlpha" type="matrix" values="0 0 0 0 0 0 0 0 0 0 0 0 0 0 0 0 0 0 127 0" result="hardAlpha"/>
<feOffset dx="1" dy="1"/>
<feGaussianBlur stdDeviation="1"/>
<feComposite in2="hardAlpha" operator="arithmetic" k2="-1" k3="1"/>
<feColorMatrix type="matrix" values="0 0 0 0 1 0 0 0 0 1 0 0 0 0 1 0 0 0 0.25 0"/>
<feBlend mode="normal" in2="shape" result="effect3_innerShadow_533_101536"/>
<feColorMatrix in="SourceAlpha" type="matrix" values="0 0 0 0 0 0 0 0 0 0 0 0 0 0 0 0 0 0 127 0" result="hardAlpha"/>
<feOffset dx="-1" dy="-1"/>
<feGaussianBlur stdDeviation="1"/>
<feComposite in2="hardAlpha" operator="arithmetic" k2="-1" k3="1"/>
<feColorMatrix type="matrix" values="0 0 0 0 0 0 0 0 0 0 0 0 0 0 0 0 0 0 0.25 0"/>
<feBlend mode="normal" in2="effect3_innerShadow_533_101536" result="effect4_innerShadow_533_101536"/>
</filter>
<filter id="filter6_ddii_533_101536" x="163" y="3" width="26" height="26" filterUnits="userSpaceOnUse" color-interpolation-filters="sRGB">
<feFlood flood-opacity="0" result="BackgroundImageFix"/>
<feColorMatrix in="SourceAlpha" type="matrix" values="0 0 0 0 0 0 0 0 0 0 0 0 0 0 0 0 0 0 127 0" result="hardAlpha"/>
<feOffset dx="1" dy="1"/>
<feGaussianBlur stdDeviation="2"/>
<feComposite in2="hardAlpha" operator="out"/>
<feColorMatrix type="matrix" values="0 0 0 0 0 0 0 0 0 0 0 0 0 0 0 0 0 0 0.25 0"/>
<feBlend mode="normal" in2="BackgroundImageFix" result="effect1_dropShadow_533_101536"/>
<feColorMatrix in="SourceAlpha" type="matrix" values="0 0 0 0 0 0 0 0 0 0 0 0 0 0 0 0 0 0 127 0" result="hardAlpha"/>
<feOffset dx="-1" dy="-1"/>
<feGaussianBlur stdDeviation="2"/>
<feComposite in2="hardAlpha" operator="out"/>
<feColorMatrix type="matrix" values="0 0 0 0 1 0 0 0 0 1 0 0 0 0 1 0 0 0 0.25 0"/>
<feBlend mode="normal" in2="effect1_dropShadow_533_101536" result="effect2_dropShadow_533_101536"/>
<feBlend mode="normal" in="SourceGraphic" in2="effect2_dropShadow_533_101536" result="shape"/>
<feColorMatrix in="SourceAlpha" type="matrix" values="0 0 0 0 0 0 0 0 0 0 0 0 0 0 0 0 0 0 127 0" result="hardAlpha"/>
<feOffset dx="1" dy="1"/>
<feGaussianBlur stdDeviation="1"/>
<feComposite in2="hardAlpha" operator="arithmetic" k2="-1" k3="1"/>
<feColorMatrix type="matrix" values="0 0 0 0 1 0 0 0 0 1 0 0 0 0 1 0 0 0 0.25 0"/>
<feBlend mode="normal" in2="shape" result="effect3_innerShadow_533_101536"/>
<feColorMatrix in="SourceAlpha" type="matrix" values="0 0 0 0 0 0 0 0 0 0 0 0 0 0 0 0 0 0 127 0" result="hardAlpha"/>
<feOffset dx="-1" dy="-1"/>
<feGaussianBlur stdDeviation="1"/>
<feComposite in2="hardAlpha" operator="arithmetic" k2="-1" k3="1"/>
<feColorMatrix type="matrix" values="0 0 0 0 0 0 0 0 0 0 0 0 0 0 0 0 0 0 0.25 0"/>
<feBlend mode="normal" in2="effect3_innerShadow_533_101536" result="effect4_innerShadow_533_101536"/>
</filter>
<filter id="filter7_ddii_533_101536" x="3" y="35" width="26" height="26" filterUnits="userSpaceOnUse" color-interpolation-filters="sRGB">
<feFlood flood-opacity="0" result="BackgroundImageFix"/>
<feColorMatrix in="SourceAlpha" type="matrix" values="0 0 0 0 0 0 0 0 0 0 0 0 0 0 0 0 0 0 127 0" result="hardAlpha"/>
<feOffset dx="1" dy="1"/>
<feGaussianBlur stdDeviation="2"/>
<feComposite in2="hardAlpha" operator="out"/>
<feColorMatrix type="matrix" values="0 0 0 0 0 0 0 0 0 0 0 0 0 0 0 0 0 0 0.25 0"/>
<feBlend mode="normal" in2="BackgroundImageFix" result="effect1_dropShadow_533_101536"/>
<feColorMatrix in="SourceAlpha" type="matrix" values="0 0 0 0 0 0 0 0 0 0 0 0 0 0 0 0 0 0 127 0" result="hardAlpha"/>
<feOffset dx="-1" dy="-1"/>
<feGaussianBlur stdDeviation="2"/>
<feComposite in2="hardAlpha" operator="out"/>
<feColorMatrix type="matrix" values="0 0 0 0 1 0 0 0 0 1 0 0 0 0 1 0 0 0 0.25 0"/>
<feBlend mode="normal" in2="effect1_dropShadow_533_101536" result="effect2_dropShadow_533_101536"/>
<feBlend mode="normal" in="SourceGraphic" in2="effect2_dropShadow_533_101536" result="shape"/>
<feColorMatrix in="SourceAlpha" type="matrix" values="0 0 0 0 0 0 0 0 0 0 0 0 0 0 0 0 0 0 127 0" result="hardAlpha"/>
<feOffset dx="1" dy="1"/>
<feGaussianBlur stdDeviation="1"/>
<feComposite in2="hardAlpha" operator="arithmetic" k2="-1" k3="1"/>
<feColorMatrix type="matrix" values="0 0 0 0 1 0 0 0 0 1 0 0 0 0 1 0 0 0 0.25 0"/>
<feBlend mode="normal" in2="shape" result="effect3_innerShadow_533_101536"/>
<feColorMatrix in="SourceAlpha" type="matrix" values="0 0 0 0 0 0 0 0 0 0 0 0 0 0 0 0 0 0 127 0" result="hardAlpha"/>
<feOffset dx="-1" dy="-1"/>
<feGaussianBlur stdDeviation="1"/>
<feComposite in2="hardAlpha" operator="arithmetic" k2="-1" k3="1"/>
<feColorMatrix type="matrix" values="0 0 0 0 0 0 0 0 0 0 0 0 0 0 0 0 0 0 0.25 0"/>
<feBlend mode="normal" in2="effect3_innerShadow_533_101536" result="effect4_innerShadow_533_101536"/>
</filter>
<filter id="filter8_ddii_533_101536" x="35" y="35" width="26" height="26" filterUnits="userSpaceOnUse" color-interpolation-filters="sRGB">
<feFlood flood-opacity="0" result="BackgroundImageFix"/>
<feColorMatrix in="SourceAlpha" type="matrix" values="0 0 0 0 0 0 0 0 0 0 0 0 0 0 0 0 0 0 127 0" result="hardAlpha"/>
<feOffset dx="1" dy="1"/>
<feGaussianBlur stdDeviation="2"/>
<feComposite in2="hardAlpha" operator="out"/>
<feColorMatrix type="matrix" values="0 0 0 0 0 0 0 0 0 0 0 0 0 0 0 0 0 0 0.25 0"/>
<feBlend mode="normal" in2="BackgroundImageFix" result="effect1_dropShadow_533_101536"/>
<feColorMatrix in="SourceAlpha" type="matrix" values="0 0 0 0 0 0 0 0 0 0 0 0 0 0 0 0 0 0 127 0" result="hardAlpha"/>
<feOffset dx="-1" dy="-1"/>
<feGaussianBlur stdDeviation="2"/>
<feComposite in2="hardAlpha" operator="out"/>
<feColorMatrix type="matrix" values="0 0 0 0 1 0 0 0 0 1 0 0 0 0 1 0 0 0 0.25 0"/>
<feBlend mode="normal" in2="effect1_dropShadow_533_101536" result="effect2_dropShadow_533_101536"/>
<feBlend mode="normal" in="SourceGraphic" in2="effect2_dropShadow_533_101536" result="shape"/>
<feColorMatrix in="SourceAlpha" type="matrix" values="0 0 0 0 0 0 0 0 0 0 0 0 0 0 0 0 0 0 127 0" result="hardAlpha"/>
<feOffset dx="1" dy="1"/>
<feGaussianBlur stdDeviation="1"/>
<feComposite in2="hardAlpha" operator="arithmetic" k2="-1" k3="1"/>
<feColorMatrix type="matrix" values="0 0 0 0 1 0 0 0 0 1 0 0 0 0 1 0 0 0 0.25 0"/>
<feBlend mode="normal" in2="shape" result="effect3_innerShadow_533_101536"/>
<feColorMatrix in="SourceAlpha" type="matrix" values="0 0 0 0 0 0 0 0 0 0 0 0 0 0 0 0 0 0 127 0" result="hardAlpha"/>
<feOffset dx="-1" dy="-1"/>
<feGaussianBlur stdDeviation="1"/>
<feComposite in2="hardAlpha" operator="arithmetic" k2="-1" k3="1"/>
<feColorMatrix type="matrix" values="0 0 0 0 0 0 0 0 0 0 0 0 0 0 0 0 0 0 0.25 0"/>
<feBlend mode="normal" in2="effect3_innerShadow_533_101536" result="effect4_innerShadow_533_101536"/>
</filter>
<filter id="filter9_ddii_533_101536" x="67" y="35" width="26" height="26" filterUnits="userSpaceOnUse" color-interpolation-filters="sRGB">
<feFlood flood-opacity="0" result="BackgroundImageFix"/>
<feColorMatrix in="SourceAlpha" type="matrix" values="0 0 0 0 0 0 0 0 0 0 0 0 0 0 0 0 0 0 127 0" result="hardAlpha"/>
<feOffset dx="1" dy="1"/>
<feGaussianBlur stdDeviation="2"/>
<feComposite in2="hardAlpha" operator="out"/>
<feColorMatrix type="matrix" values="0 0 0 0 0 0 0 0 0 0 0 0 0 0 0 0 0 0 0.25 0"/>
<feBlend mode="normal" in2="BackgroundImageFix" result="effect1_dropShadow_533_101536"/>
<feColorMatrix in="SourceAlpha" type="matrix" values="0 0 0 0 0 0 0 0 0 0 0 0 0 0 0 0 0 0 127 0" result="hardAlpha"/>
<feOffset dx="-1" dy="-1"/>
<feGaussianBlur stdDeviation="2"/>
<feComposite in2="hardAlpha" operator="out"/>
<feColorMatrix type="matrix" values="0 0 0 0 1 0 0 0 0 1 0 0 0 0 1 0 0 0 0.25 0"/>
<feBlend mode="normal" in2="effect1_dropShadow_533_101536" result="effect2_dropShadow_533_101536"/>
<feBlend mode="normal" in="SourceGraphic" in2="effect2_dropShadow_533_101536" result="shape"/>
<feColorMatrix in="SourceAlpha" type="matrix" values="0 0 0 0 0 0 0 0 0 0 0 0 0 0 0 0 0 0 127 0" result="hardAlpha"/>
<feOffset dx="1" dy="1"/>
<feGaussianBlur stdDeviation="1"/>
<feComposite in2="hardAlpha" operator="arithmetic" k2="-1" k3="1"/>
<feColorMatrix type="matrix" values="0 0 0 0 1 0 0 0 0 1 0 0 0 0 1 0 0 0 0.25 0"/>
<feBlend mode="normal" in2="shape" result="effect3_innerShadow_533_101536"/>
<feColorMatrix in="SourceAlpha" type="matrix" values="0 0 0 0 0 0 0 0 0 0 0 0 0 0 0 0 0 0 127 0" result="hardAlpha"/>
<feOffset dx="-1" dy="-1"/>
<feGaussianBlur stdDeviation="1"/>
<feComposite in2="hardAlpha" operator="arithmetic" k2="-1" k3="1"/>
<feColorMatrix type="matrix" values="0 0 0 0 0 0 0 0 0 0 0 0 0 0 0 0 0 0 0.25 0"/>
<feBlend mode="normal" in2="effect3_innerShadow_533_101536" result="effect4_innerShadow_533_101536"/>
</filter>
<filter id="filter10_ddii_533_101536" x="99" y="35" width="26" height="26" filterUnits="userSpaceOnUse" color-interpolation-filters="sRGB">
<feFlood flood-opacity="0" result="BackgroundImageFix"/>
<feColorMatrix in="SourceAlpha" type="matrix" values="0 0 0 0 0 0 0 0 0 0 0 0 0 0 0 0 0 0 127 0" result="hardAlpha"/>
<feOffset dx="1" dy="1"/>
<feGaussianBlur stdDeviation="2"/>
<feComposite in2="hardAlpha" operator="out"/>
<feColorMatrix type="matrix" values="0 0 0 0 0 0 0 0 0 0 0 0 0 0 0 0 0 0 0.25 0"/>
<feBlend mode="normal" in2="BackgroundImageFix" result="effect1_dropShadow_533_101536"/>
<feColorMatrix in="SourceAlpha" type="matrix" values="0 0 0 0 0 0 0 0 0 0 0 0 0 0 0 0 0 0 127 0" result="hardAlpha"/>
<feOffset dx="-1" dy="-1"/>
<feGaussianBlur stdDeviation="2"/>
<feComposite in2="hardAlpha" operator="out"/>
<feColorMatrix type="matrix" values="0 0 0 0 1 0 0 0 0 1 0 0 0 0 1 0 0 0 0.25 0"/>
<feBlend mode="normal" in2="effect1_dropShadow_533_101536" result="effect2_dropShadow_533_101536"/>
<feBlend mode="normal" in="SourceGraphic" in2="effect2_dropShadow_533_101536" result="shape"/>
<feColorMatrix in="SourceAlpha" type="matrix" values="0 0 0 0 0 0 0 0 0 0 0 0 0 0 0 0 0 0 127 0" result="hardAlpha"/>
<feOffset dx="1" dy="1"/>
<feGaussianBlur stdDeviation="1"/>
<feComposite in2="hardAlpha" operator="arithmetic" k2="-1" k3="1"/>
<feColorMatrix type="matrix" values="0 0 0 0 1 0 0 0 0 1 0 0 0 0 1 0 0 0 0.25 0"/>
<feBlend mode="normal" in2="shape" result="effect3_innerShadow_533_101536"/>
<feColorMatrix in="SourceAlpha" type="matrix" values="0 0 0 0 0 0 0 0 0 0 0 0 0 0 0 0 0 0 127 0" result="hardAlpha"/>
<feOffset dx="-1" dy="-1"/>
<feGaussianBlur stdDeviation="1"/>
<feComposite in2="hardAlpha" operator="arithmetic" k2="-1" k3="1"/>
<feColorMatrix type="matrix" values="0 0 0 0 0 0 0 0 0 0 0 0 0 0 0 0 0 0 0.25 0"/>
<feBlend mode="normal" in2="effect3_innerShadow_533_101536" result="effect4_innerShadow_533_101536"/>
</filter>
<filter id="filter11_ddii_533_101536" x="131" y="35" width="26" height="26" filterUnits="userSpaceOnUse" color-interpolation-filters="sRGB">
<feFlood flood-opacity="0" result="BackgroundImageFix"/>
<feColorMatrix in="SourceAlpha" type="matrix" values="0 0 0 0 0 0 0 0 0 0 0 0 0 0 0 0 0 0 127 0" result="hardAlpha"/>
<feOffset dx="1" dy="1"/>
<feGaussianBlur stdDeviation="2"/>
<feComposite in2="hardAlpha" operator="out"/>
<feColorMatrix type="matrix" values="0 0 0 0 0 0 0 0 0 0 0 0 0 0 0 0 0 0 0.25 0"/>
<feBlend mode="normal" in2="BackgroundImageFix" result="effect1_dropShadow_533_101536"/>
<feColorMatrix in="SourceAlpha" type="matrix" values="0 0 0 0 0 0 0 0 0 0 0 0 0 0 0 0 0 0 127 0" result="hardAlpha"/>
<feOffset dx="-1" dy="-1"/>
<feGaussianBlur stdDeviation="2"/>
<feComposite in2="hardAlpha" operator="out"/>
<feColorMatrix type="matrix" values="0 0 0 0 1 0 0 0 0 1 0 0 0 0 1 0 0 0 0.25 0"/>
<feBlend mode="normal" in2="effect1_dropShadow_533_101536" result="effect2_dropShadow_533_101536"/>
<feBlend mode="normal" in="SourceGraphic" in2="effect2_dropShadow_533_101536" result="shape"/>
<feColorMatrix in="SourceAlpha" type="matrix" values="0 0 0 0 0 0 0 0 0 0 0 0 0 0 0 0 0 0 127 0" result="hardAlpha"/>
<feOffset dx="1" dy="1"/>
<feGaussianBlur stdDeviation="1"/>
<feComposite in2="hardAlpha" operator="arithmetic" k2="-1" k3="1"/>
<feColorMatrix type="matrix" values="0 0 0 0 1 0 0 0 0 1 0 0 0 0 1 0 0 0 0.25 0"/>
<feBlend mode="normal" in2="shape" result="effect3_innerShadow_533_101536"/>
<feColorMatrix in="SourceAlpha" type="matrix" values="0 0 0 0 0 0 0 0 0 0 0 0 0 0 0 0 0 0 127 0" result="hardAlpha"/>
<feOffset dx="-1" dy="-1"/>
<feGaussianBlur stdDeviation="1"/>
<feComposite in2="hardAlpha" operator="arithmetic" k2="-1" k3="1"/>
<feColorMatrix type="matrix" values="0 0 0 0 0 0 0 0 0 0 0 0 0 0 0 0 0 0 0.25 0"/>
<feBlend mode="normal" in2="effect3_innerShadow_533_101536" result="effect4_innerShadow_533_101536"/>
</filter>
<filter id="filter12_ddii_533_101536" x="163" y="35" width="26" height="26" filterUnits="userSpaceOnUse" color-interpolation-filters="sRGB">
<feFlood flood-opacity="0" result="BackgroundImageFix"/>
<feColorMatrix in="SourceAlpha" type="matrix" values="0 0 0 0 0 0 0 0 0 0 0 0 0 0 0 0 0 0 127 0" result="hardAlpha"/>
<feOffset dx="1" dy="1"/>
<feGaussianBlur stdDeviation="2"/>
<feComposite in2="hardAlpha" operator="out"/>
<feColorMatrix type="matrix" values="0 0 0 0 0 0 0 0 0 0 0 0 0 0 0 0 0 0 0.25 0"/>
<feBlend mode="normal" in2="BackgroundImageFix" result="effect1_dropShadow_533_101536"/>
<feColorMatrix in="SourceAlpha" type="matrix" values="0 0 0 0 0 0 0 0 0 0 0 0 0 0 0 0 0 0 127 0" result="hardAlpha"/>
<feOffset dx="-1" dy="-1"/>
<feGaussianBlur stdDeviation="2"/>
<feComposite in2="hardAlpha" operator="out"/>
<feColorMatrix type="matrix" values="0 0 0 0 1 0 0 0 0 1 0 0 0 0 1 0 0 0 0.25 0"/>
<feBlend mode="normal" in2="effect1_dropShadow_533_101536" result="effect2_dropShadow_533_101536"/>
<feBlend mode="normal" in="SourceGraphic" in2="effect2_dropShadow_533_101536" result="shape"/>
<feColorMatrix in="SourceAlpha" type="matrix" values="0 0 0 0 0 0 0 0 0 0 0 0 0 0 0 0 0 0 127 0" result="hardAlpha"/>
<feOffset dx="1" dy="1"/>
<feGaussianBlur stdDeviation="1"/>
<feComposite in2="hardAlpha" operator="arithmetic" k2="-1" k3="1"/>
<feColorMatrix type="matrix" values="0 0 0 0 1 0 0 0 0 1 0 0 0 0 1 0 0 0 0.25 0"/>
<feBlend mode="normal" in2="shape" result="effect3_innerShadow_533_101536"/>
<feColorMatrix in="SourceAlpha" type="matrix" values="0 0 0 0 0 0 0 0 0 0 0 0 0 0 0 0 0 0 127 0" result="hardAlpha"/>
<feOffset dx="-1" dy="-1"/>
<feGaussianBlur stdDeviation="1"/>
<feComposite in2="hardAlpha" operator="arithmetic" k2="-1" k3="1"/>
<feColorMatrix type="matrix" values="0 0 0 0 0 0 0 0 0 0 0 0 0 0 0 0 0 0 0.25 0"/>
<feBlend mode="normal" in2="effect3_innerShadow_533_101536" result="effect4_innerShadow_533_101536"/>
</filter>
<clipPath id="clip0_533_101536">
<rect width="192" height="64" rx="2" fill="white"/>
</clipPath>
<clipPath id="clip1_533_101536">
<path d="M0 2C0 0.895431 0.895431 0 2 0H32V32H0V2Z" fill="white"/>
</clipPath>
<clipPath id="clip2_533_101536">
<rect width="32" height="32" fill="white" transform="translate(32)"/>
</clipPath>
<clipPath id="clip3_533_101536">
<rect width="32" height="32" fill="white" transform="translate(64)"/>
</clipPath>
<clipPath id="clip4_533_101536">
<rect width="32" height="32" fill="white" transform="translate(96)"/>
</clipPath>
<clipPath id="clip5_533_101536">
<rect width="32" height="32" fill="white" transform="translate(128)"/>
</clipPath>
<clipPath id="clip6_533_101536">
<path d="M160 0H190C191.105 0 192 0.895431 192 2V32H160V0Z" fill="white"/>
</clipPath>
<clipPath id="clip7_533_101536">
<path d="M0 32H32V64H2C0.895431 64 0 63.1046 0 62V32Z" fill="white"/>
</clipPath>
<clipPath id="clip8_533_101536">
<rect width="32" height="32" fill="white" transform="translate(32 32)"/>
</clipPath>
<clipPath id="clip9_533_101536">
<rect width="32" height="32" fill="white" transform="translate(64 32)"/>
</clipPath>
<clipPath id="clip10_533_101536">
<rect width="32" height="32" fill="white" transform="translate(96 32)"/>
</clipPath>
<clipPath id="clip11_533_101536">
<rect width="32" height="32" fill="white" transform="translate(128 32)"/>
</clipPath>
<clipPath id="clip12_533_101536">
<path d="M160 32H192V62C192 63.1046 191.105 64 190 64H160V32Z" fill="white"/>
</clipPath>
</defs>
</svg>
